<mxfile host="app.diagrams.net" modified="2023-10-02T17:46:04.460Z" agent="Mozilla/5.0 (Windows NT 10.0; Win64; x64) AppleWebKit/537.36 (KHTML, like Gecko) Chrome/117.0.0.0 Safari/537.36" etag="IfUAbjTs8C1ti_y8rkJp" version="22.0.1" type="github">
  <diagram name="Page-1" id="-mjlqebvSr8Z0SdgE8bW">
    <mxGraphModel dx="1300" dy="723" grid="1" gridSize="10" guides="1" tooltips="1" connect="1" arrows="1" fold="1" page="1" pageScale="1" pageWidth="850" pageHeight="1100" math="0" shadow="0">
      <root>
        <mxCell id="0" />
        <mxCell id="1" parent="0" />
        <mxCell id="5FVByCgZ-Wp0GAzIwcAn-2" value="Pre-Patching/ bring up standby search instance" style="text;html=1;align=center;verticalAlign=middle;resizable=0;points=[];autosize=1;strokeColor=none;fillColor=none;fontSize=19;fontStyle=5" parent="1" vertex="1">
          <mxGeometry x="2" y="35" width="450" height="40" as="geometry" />
        </mxCell>
        <mxCell id="5FVByCgZ-Wp0GAzIwcAn-3" value="Before" style="text;html=1;align=center;verticalAlign=middle;resizable=0;points=[];autosize=1;strokeColor=none;fillColor=none;fontStyle=5" parent="1" vertex="1">
          <mxGeometry x="32" y="140" width="60" height="30" as="geometry" />
        </mxCell>
        <mxCell id="5FVByCgZ-Wp0GAzIwcAn-5" value="" style="endArrow=none;html=1;rounded=0;" parent="1" edge="1">
          <mxGeometry width="50" height="50" relative="1" as="geometry">
            <mxPoint x="402" y="520" as="sourcePoint" />
            <mxPoint x="402" y="120" as="targetPoint" />
          </mxGeometry>
        </mxCell>
        <mxCell id="5FVByCgZ-Wp0GAzIwcAn-6" value="After" style="text;html=1;align=center;verticalAlign=middle;resizable=0;points=[];autosize=1;strokeColor=none;fillColor=none;fontStyle=5" parent="1" vertex="1">
          <mxGeometry x="412" y="140" width="50" height="30" as="geometry" />
        </mxCell>
        <mxCell id="TRkRwzScEhr-TnR55P3y-11" value="" style="rounded=0;whiteSpace=wrap;html=1;" vertex="1" parent="1">
          <mxGeometry x="8" y="230" width="390" height="280" as="geometry" />
        </mxCell>
        <mxCell id="5FVByCgZ-Wp0GAzIwcAn-1" value="BNM-Web-Instance-1&lt;br&gt;10.25.4.28" style="outlineConnect=0;dashed=0;verticalLabelPosition=bottom;verticalAlign=top;align=center;html=1;shape=mxgraph.aws3.ec2;fillColor=#F58534;gradientColor=none;shadow=0;fontSize=10;" parent="1" vertex="1">
          <mxGeometry x="25" y="280" width="70" height="83" as="geometry" />
        </mxCell>
        <mxCell id="5FVByCgZ-Wp0GAzIwcAn-4" value="BNM-Web-Instance-2&lt;br&gt;10.25.5.19" style="outlineConnect=0;dashed=0;verticalLabelPosition=bottom;verticalAlign=top;align=center;html=1;shape=mxgraph.aws3.ec2;fillColor=#F58534;gradientColor=none;shadow=0;fontSize=10;" parent="1" vertex="1">
          <mxGeometry x="25" y="394" width="70" height="83" as="geometry" />
        </mxCell>
        <mxCell id="TRkRwzScEhr-TnR55P3y-1" value="" style="endArrow=none;dashed=1;html=1;rounded=0;shadow=0;" edge="1" parent="1">
          <mxGeometry width="50" height="50" relative="1" as="geometry">
            <mxPoint x="125" y="470" as="sourcePoint" />
            <mxPoint x="125" y="260" as="targetPoint" />
          </mxGeometry>
        </mxCell>
        <mxCell id="TRkRwzScEhr-TnR55P3y-2" value="BNM-App-Instance-3&lt;br&gt;10.25.4.108" style="outlineConnect=0;dashed=0;verticalLabelPosition=bottom;verticalAlign=top;align=center;html=1;shape=mxgraph.aws3.ec2;fillColor=#F58534;gradientColor=none;shadow=0;fontSize=10;" vertex="1" parent="1">
          <mxGeometry x="165" y="280" width="70" height="83" as="geometry" />
        </mxCell>
        <mxCell id="TRkRwzScEhr-TnR55P3y-3" value="BNM-App-Instance-4&lt;br&gt;10.25.5.77" style="outlineConnect=0;dashed=0;verticalLabelPosition=bottom;verticalAlign=top;align=center;html=1;shape=mxgraph.aws3.ec2;fillColor=#F58534;gradientColor=none;shadow=0;fontSize=10;" vertex="1" parent="1">
          <mxGeometry x="165" y="394" width="70" height="83" as="geometry" />
        </mxCell>
        <mxCell id="TRkRwzScEhr-TnR55P3y-4" value="" style="endArrow=none;dashed=1;html=1;rounded=0;shadow=0;" edge="1" parent="1">
          <mxGeometry width="50" height="50" relative="1" as="geometry">
            <mxPoint x="275" y="470" as="sourcePoint" />
            <mxPoint x="275" y="260" as="targetPoint" />
          </mxGeometry>
        </mxCell>
        <mxCell id="TRkRwzScEhr-TnR55P3y-5" value="BNM-Search-Instance-1&lt;br&gt;10.25.4.76" style="outlineConnect=0;dashed=0;verticalLabelPosition=bottom;verticalAlign=top;align=center;html=1;shape=mxgraph.aws3.ec2;fillColor=#F58534;gradientColor=none;shadow=0;fontSize=10;" vertex="1" parent="1">
          <mxGeometry x="305" y="280" width="70" height="83" as="geometry" />
        </mxCell>
        <mxCell id="TRkRwzScEhr-TnR55P3y-7" value="Web" style="text;html=1;align=center;verticalAlign=middle;resizable=0;points=[];autosize=1;strokeColor=none;fillColor=none;shadow=0;" vertex="1" parent="1">
          <mxGeometry x="40" y="238" width="50" height="30" as="geometry" />
        </mxCell>
        <mxCell id="TRkRwzScEhr-TnR55P3y-8" value="Application" style="text;html=1;align=center;verticalAlign=middle;resizable=0;points=[];autosize=1;strokeColor=none;fillColor=none;shadow=0;" vertex="1" parent="1">
          <mxGeometry x="160" y="238" width="80" height="30" as="geometry" />
        </mxCell>
        <mxCell id="TRkRwzScEhr-TnR55P3y-9" value="Search" style="text;html=1;align=center;verticalAlign=middle;resizable=0;points=[];autosize=1;strokeColor=none;fillColor=none;shadow=0;" vertex="1" parent="1">
          <mxGeometry x="310" y="238" width="60" height="30" as="geometry" />
        </mxCell>
        <mxCell id="TRkRwzScEhr-TnR55P3y-12" value="Liferay cluster" style="text;html=1;align=center;verticalAlign=middle;resizable=0;points=[];autosize=1;strokeColor=none;fillColor=none;fontStyle=4" vertex="1" parent="1">
          <mxGeometry x="150" y="200" width="100" height="30" as="geometry" />
        </mxCell>
        <mxCell id="TRkRwzScEhr-TnR55P3y-14" value="Active-Active mode + x1 Search Instance" style="text;html=1;align=center;verticalAlign=middle;resizable=0;points=[];autosize=1;strokeColor=none;fillColor=none;" vertex="1" parent="1">
          <mxGeometry x="70" y="520" width="240" height="30" as="geometry" />
        </mxCell>
        <mxCell id="TRkRwzScEhr-TnR55P3y-15" value="" style="endArrow=classic;html=1;rounded=0;" edge="1" parent="1" source="TRkRwzScEhr-TnR55P3y-13">
          <mxGeometry width="50" height="50" relative="1" as="geometry">
            <mxPoint x="337.5" y="420" as="sourcePoint" />
            <mxPoint x="135" y="592" as="targetPoint" />
          </mxGeometry>
        </mxCell>
        <mxCell id="TRkRwzScEhr-TnR55P3y-13" value="BNM-Search-Instance-2&lt;br&gt;10.25.5.73&lt;br&gt;Standby Unit" style="outlineConnect=0;dashed=0;verticalLabelPosition=bottom;verticalAlign=top;align=center;html=1;shape=mxgraph.aws3.ec2;fillColor=#f5f5f5;shadow=0;fontSize=10;fontColor=#333333;strokeColor=#666666;" vertex="1" parent="1">
          <mxGeometry x="20" y="550" width="70" height="83" as="geometry" />
        </mxCell>
        <mxCell id="TRkRwzScEhr-TnR55P3y-17" value="Offline" style="text;html=1;align=center;verticalAlign=middle;resizable=0;points=[];autosize=1;strokeColor=none;fillColor=none;labelBackgroundColor=none;labelBorderColor=none;" vertex="1" parent="1">
          <mxGeometry x="125" y="576.5" width="60" height="30" as="geometry" />
        </mxCell>
        <mxCell id="TRkRwzScEhr-TnR55P3y-18" value="" style="rounded=0;whiteSpace=wrap;html=1;" vertex="1" parent="1">
          <mxGeometry x="415" y="230" width="390" height="280" as="geometry" />
        </mxCell>
        <mxCell id="TRkRwzScEhr-TnR55P3y-19" value="BNM-Web-Instance-1&lt;br&gt;10.25.4.28" style="outlineConnect=0;dashed=0;verticalLabelPosition=bottom;verticalAlign=top;align=center;html=1;shape=mxgraph.aws3.ec2;fillColor=#F58534;gradientColor=none;shadow=0;fontSize=10;" vertex="1" parent="1">
          <mxGeometry x="432" y="280" width="70" height="83" as="geometry" />
        </mxCell>
        <mxCell id="TRkRwzScEhr-TnR55P3y-20" value="BNM-Web-Instance-2&lt;br&gt;10.25.5.19" style="outlineConnect=0;dashed=0;verticalLabelPosition=bottom;verticalAlign=top;align=center;html=1;shape=mxgraph.aws3.ec2;fillColor=#F58534;gradientColor=none;shadow=0;fontSize=10;" vertex="1" parent="1">
          <mxGeometry x="432" y="394" width="70" height="83" as="geometry" />
        </mxCell>
        <mxCell id="TRkRwzScEhr-TnR55P3y-21" value="" style="endArrow=none;dashed=1;html=1;rounded=0;shadow=0;" edge="1" parent="1">
          <mxGeometry width="50" height="50" relative="1" as="geometry">
            <mxPoint x="532" y="470" as="sourcePoint" />
            <mxPoint x="532" y="260" as="targetPoint" />
          </mxGeometry>
        </mxCell>
        <mxCell id="TRkRwzScEhr-TnR55P3y-22" value="BNM-App-Instance-3&lt;br&gt;10.25.4.108" style="outlineConnect=0;dashed=0;verticalLabelPosition=bottom;verticalAlign=top;align=center;html=1;shape=mxgraph.aws3.ec2;fillColor=#F58534;gradientColor=none;shadow=0;fontSize=10;" vertex="1" parent="1">
          <mxGeometry x="572" y="280" width="70" height="83" as="geometry" />
        </mxCell>
        <mxCell id="TRkRwzScEhr-TnR55P3y-23" value="BNM-App-Instance-4&lt;br&gt;10.25.5.77" style="outlineConnect=0;dashed=0;verticalLabelPosition=bottom;verticalAlign=top;align=center;html=1;shape=mxgraph.aws3.ec2;fillColor=#F58534;gradientColor=none;shadow=0;fontSize=10;" vertex="1" parent="1">
          <mxGeometry x="572" y="394" width="70" height="83" as="geometry" />
        </mxCell>
        <mxCell id="TRkRwzScEhr-TnR55P3y-24" value="" style="endArrow=none;dashed=1;html=1;rounded=0;shadow=0;" edge="1" parent="1">
          <mxGeometry width="50" height="50" relative="1" as="geometry">
            <mxPoint x="682" y="470" as="sourcePoint" />
            <mxPoint x="682" y="260" as="targetPoint" />
          </mxGeometry>
        </mxCell>
        <mxCell id="TRkRwzScEhr-TnR55P3y-25" value="BNM-Search-Instance-1&lt;br&gt;10.25.4.76" style="outlineConnect=0;dashed=0;verticalLabelPosition=bottom;verticalAlign=top;align=center;html=1;shape=mxgraph.aws3.ec2;fillColor=#F58534;gradientColor=none;shadow=0;fontSize=10;" vertex="1" parent="1">
          <mxGeometry x="712" y="280" width="70" height="83" as="geometry" />
        </mxCell>
        <mxCell id="TRkRwzScEhr-TnR55P3y-26" value="Web" style="text;html=1;align=center;verticalAlign=middle;resizable=0;points=[];autosize=1;strokeColor=none;fillColor=none;shadow=0;" vertex="1" parent="1">
          <mxGeometry x="447" y="238" width="50" height="30" as="geometry" />
        </mxCell>
        <mxCell id="TRkRwzScEhr-TnR55P3y-27" value="Application" style="text;html=1;align=center;verticalAlign=middle;resizable=0;points=[];autosize=1;strokeColor=none;fillColor=none;shadow=0;" vertex="1" parent="1">
          <mxGeometry x="567" y="238" width="80" height="30" as="geometry" />
        </mxCell>
        <mxCell id="TRkRwzScEhr-TnR55P3y-28" value="Search" style="text;html=1;align=center;verticalAlign=middle;resizable=0;points=[];autosize=1;strokeColor=none;fillColor=none;shadow=0;" vertex="1" parent="1">
          <mxGeometry x="717" y="238" width="60" height="30" as="geometry" />
        </mxCell>
        <mxCell id="TRkRwzScEhr-TnR55P3y-29" value="Liferay cluster" style="text;html=1;align=center;verticalAlign=middle;resizable=0;points=[];autosize=1;strokeColor=none;fillColor=none;fontStyle=4" vertex="1" parent="1">
          <mxGeometry x="557" y="200" width="100" height="30" as="geometry" />
        </mxCell>
        <mxCell id="TRkRwzScEhr-TnR55P3y-30" value="Active-Active mode + x1 Search Instance" style="text;html=1;align=center;verticalAlign=middle;resizable=0;points=[];autosize=1;strokeColor=none;fillColor=none;" vertex="1" parent="1">
          <mxGeometry x="477" y="520" width="240" height="30" as="geometry" />
        </mxCell>
        <mxCell id="TRkRwzScEhr-TnR55P3y-31" value="" style="endArrow=classic;html=1;rounded=0;" edge="1" parent="1">
          <mxGeometry width="50" height="50" relative="1" as="geometry">
            <mxPoint x="460" y="590.9966666666668" as="sourcePoint" />
            <mxPoint x="560" y="591" as="targetPoint" />
          </mxGeometry>
        </mxCell>
        <mxCell id="TRkRwzScEhr-TnR55P3y-32" value="BNM-Search-Instance-2&lt;br&gt;10.25.5.73" style="outlineConnect=0;dashed=0;verticalLabelPosition=bottom;verticalAlign=top;align=center;html=1;shape=mxgraph.aws3.ec2;fillColor=#fa6800;shadow=0;fontSize=10;fontColor=#000000;strokeColor=#C73500;" vertex="1" parent="1">
          <mxGeometry x="430" y="550" width="70" height="83" as="geometry" />
        </mxCell>
        <mxCell id="TRkRwzScEhr-TnR55P3y-33" value="Bring Online" style="text;html=1;align=center;verticalAlign=middle;resizable=0;points=[];autosize=1;strokeColor=none;fillColor=none;labelBackgroundColor=none;labelBorderColor=none;" vertex="1" parent="1">
          <mxGeometry x="550" y="576.5" width="90" height="30" as="geometry" />
        </mxCell>
        <mxCell id="TRkRwzScEhr-TnR55P3y-35" value="1. Perform checking, reconfigure instance&lt;br&gt;2. EBS Snapshots/ AMI snapshots&lt;br&gt;3. Pre-Patching, &lt;br&gt;Scan -&amp;gt; Scan &amp;amp; Install the available Crifical &amp;amp; Important Patches &lt;br&gt;based on the Patch baline setup earlier&lt;br&gt;4. Done installed available Patches&amp;nbsp;&lt;br&gt;5. Add node to Cluster&lt;br&gt;6. Shutdiwn the old one, continue with the new one" style="text;html=1;align=left;verticalAlign=middle;resizable=0;points=[];autosize=1;strokeColor=none;fillColor=none;" vertex="1" parent="1">
          <mxGeometry x="415" y="656" width="360" height="130" as="geometry" />
        </mxCell>
        <mxCell id="TRkRwzScEhr-TnR55P3y-48" value="" style="rounded=0;whiteSpace=wrap;html=1;" vertex="1" parent="1">
          <mxGeometry x="415" y="800" width="390" height="280" as="geometry" />
        </mxCell>
        <mxCell id="TRkRwzScEhr-TnR55P3y-49" value="BNM-Web-Instance-1&lt;br&gt;10.25.4.28" style="outlineConnect=0;dashed=0;verticalLabelPosition=bottom;verticalAlign=top;align=center;html=1;shape=mxgraph.aws3.ec2;fillColor=#F58534;gradientColor=none;shadow=0;fontSize=10;" vertex="1" parent="1">
          <mxGeometry x="432" y="850" width="70" height="83" as="geometry" />
        </mxCell>
        <mxCell id="TRkRwzScEhr-TnR55P3y-50" value="BNM-Web-Instance-2&lt;br&gt;10.25.5.19" style="outlineConnect=0;dashed=0;verticalLabelPosition=bottom;verticalAlign=top;align=center;html=1;shape=mxgraph.aws3.ec2;fillColor=#F58534;gradientColor=none;shadow=0;fontSize=10;" vertex="1" parent="1">
          <mxGeometry x="432" y="964" width="70" height="83" as="geometry" />
        </mxCell>
        <mxCell id="TRkRwzScEhr-TnR55P3y-51" value="" style="endArrow=none;dashed=1;html=1;rounded=0;shadow=0;" edge="1" parent="1">
          <mxGeometry width="50" height="50" relative="1" as="geometry">
            <mxPoint x="532" y="1040" as="sourcePoint" />
            <mxPoint x="532" y="830" as="targetPoint" />
          </mxGeometry>
        </mxCell>
        <mxCell id="TRkRwzScEhr-TnR55P3y-52" value="BNM-App-Instance-3&lt;br&gt;10.25.4.108" style="outlineConnect=0;dashed=0;verticalLabelPosition=bottom;verticalAlign=top;align=center;html=1;shape=mxgraph.aws3.ec2;fillColor=#F58534;gradientColor=none;shadow=0;fontSize=10;" vertex="1" parent="1">
          <mxGeometry x="572" y="850" width="70" height="83" as="geometry" />
        </mxCell>
        <mxCell id="TRkRwzScEhr-TnR55P3y-53" value="BNM-App-Instance-4&lt;br&gt;10.25.5.77" style="outlineConnect=0;dashed=0;verticalLabelPosition=bottom;verticalAlign=top;align=center;html=1;shape=mxgraph.aws3.ec2;fillColor=#F58534;gradientColor=none;shadow=0;fontSize=10;" vertex="1" parent="1">
          <mxGeometry x="572" y="964" width="70" height="83" as="geometry" />
        </mxCell>
        <mxCell id="TRkRwzScEhr-TnR55P3y-54" value="" style="endArrow=none;dashed=1;html=1;rounded=0;shadow=0;" edge="1" parent="1">
          <mxGeometry width="50" height="50" relative="1" as="geometry">
            <mxPoint x="682" y="1040" as="sourcePoint" />
            <mxPoint x="682" y="830" as="targetPoint" />
          </mxGeometry>
        </mxCell>
        <mxCell id="TRkRwzScEhr-TnR55P3y-55" value="BNM-Search-Instance-1&lt;br&gt;10.25.4.76" style="outlineConnect=0;dashed=0;verticalLabelPosition=bottom;verticalAlign=top;align=center;html=1;shape=mxgraph.aws3.ec2;fillColor=#F58534;gradientColor=none;shadow=0;fontSize=10;" vertex="1" parent="1">
          <mxGeometry x="712" y="850" width="70" height="83" as="geometry" />
        </mxCell>
        <mxCell id="TRkRwzScEhr-TnR55P3y-56" value="Web" style="text;html=1;align=center;verticalAlign=middle;resizable=0;points=[];autosize=1;strokeColor=none;fillColor=none;shadow=0;" vertex="1" parent="1">
          <mxGeometry x="447" y="808" width="50" height="30" as="geometry" />
        </mxCell>
        <mxCell id="TRkRwzScEhr-TnR55P3y-57" value="Application" style="text;html=1;align=center;verticalAlign=middle;resizable=0;points=[];autosize=1;strokeColor=none;fillColor=none;shadow=0;" vertex="1" parent="1">
          <mxGeometry x="567" y="808" width="80" height="30" as="geometry" />
        </mxCell>
        <mxCell id="TRkRwzScEhr-TnR55P3y-58" value="Search" style="text;html=1;align=center;verticalAlign=middle;resizable=0;points=[];autosize=1;strokeColor=none;fillColor=none;shadow=0;" vertex="1" parent="1">
          <mxGeometry x="717" y="808" width="60" height="30" as="geometry" />
        </mxCell>
        <mxCell id="TRkRwzScEhr-TnR55P3y-59" value="Liferay cluster" style="text;html=1;align=center;verticalAlign=middle;resizable=0;points=[];autosize=1;strokeColor=none;fillColor=none;fontStyle=4" vertex="1" parent="1">
          <mxGeometry x="557" y="770" width="100" height="30" as="geometry" />
        </mxCell>
        <mxCell id="TRkRwzScEhr-TnR55P3y-61" value="" style="endArrow=none;html=1;rounded=0;" edge="1" parent="1">
          <mxGeometry width="50" height="50" relative="1" as="geometry">
            <mxPoint x="644" y="591" as="sourcePoint" />
            <mxPoint x="835" y="590" as="targetPoint" />
          </mxGeometry>
        </mxCell>
        <mxCell id="TRkRwzScEhr-TnR55P3y-62" value="" style="endArrow=none;html=1;rounded=0;" edge="1" parent="1">
          <mxGeometry width="50" height="50" relative="1" as="geometry">
            <mxPoint x="835" y="1000" as="sourcePoint" />
            <mxPoint x="835" y="590" as="targetPoint" />
          </mxGeometry>
        </mxCell>
        <mxCell id="TRkRwzScEhr-TnR55P3y-63" value="" style="endArrow=classic;html=1;rounded=0;" edge="1" parent="1">
          <mxGeometry width="50" height="50" relative="1" as="geometry">
            <mxPoint x="835" y="1000" as="sourcePoint" />
            <mxPoint x="795" y="1000" as="targetPoint" />
          </mxGeometry>
        </mxCell>
        <mxCell id="TRkRwzScEhr-TnR55P3y-64" value="BNM-Search-Instance-2&lt;br&gt;10.25.5.73" style="outlineConnect=0;dashed=0;verticalLabelPosition=bottom;verticalAlign=top;align=center;html=1;shape=mxgraph.aws3.ec2;fillColor=#fa6800;shadow=0;fontSize=10;fontColor=#000000;strokeColor=#C73500;" vertex="1" parent="1">
          <mxGeometry x="712" y="964" width="70" height="83" as="geometry" />
        </mxCell>
        <mxCell id="TRkRwzScEhr-TnR55P3y-78" value="" style="rounded=0;whiteSpace=wrap;html=1;" vertex="1" parent="1">
          <mxGeometry x="285" y="1150" width="390" height="280" as="geometry" />
        </mxCell>
        <mxCell id="TRkRwzScEhr-TnR55P3y-79" value="BNM-Web-Instance-1&lt;br&gt;10.25.4.28" style="outlineConnect=0;dashed=0;verticalLabelPosition=bottom;verticalAlign=top;align=center;html=1;shape=mxgraph.aws3.ec2;fillColor=#F58534;gradientColor=none;shadow=0;fontSize=10;" vertex="1" parent="1">
          <mxGeometry x="302" y="1200" width="70" height="83" as="geometry" />
        </mxCell>
        <mxCell id="TRkRwzScEhr-TnR55P3y-80" value="BNM-Web-Instance-2&lt;br&gt;10.25.5.19" style="outlineConnect=0;dashed=0;verticalLabelPosition=bottom;verticalAlign=top;align=center;html=1;shape=mxgraph.aws3.ec2;fillColor=#F58534;gradientColor=none;shadow=0;fontSize=10;" vertex="1" parent="1">
          <mxGeometry x="302" y="1314" width="70" height="83" as="geometry" />
        </mxCell>
        <mxCell id="TRkRwzScEhr-TnR55P3y-81" value="" style="endArrow=none;dashed=1;html=1;rounded=0;shadow=0;" edge="1" parent="1">
          <mxGeometry width="50" height="50" relative="1" as="geometry">
            <mxPoint x="402" y="1390" as="sourcePoint" />
            <mxPoint x="402" y="1180" as="targetPoint" />
          </mxGeometry>
        </mxCell>
        <mxCell id="TRkRwzScEhr-TnR55P3y-82" value="BNM-App-Instance-3&lt;br&gt;10.25.4.108" style="outlineConnect=0;dashed=0;verticalLabelPosition=bottom;verticalAlign=top;align=center;html=1;shape=mxgraph.aws3.ec2;fillColor=#F58534;gradientColor=none;shadow=0;fontSize=10;" vertex="1" parent="1">
          <mxGeometry x="442" y="1200" width="70" height="83" as="geometry" />
        </mxCell>
        <mxCell id="TRkRwzScEhr-TnR55P3y-83" value="BNM-App-Instance-4&lt;br&gt;10.25.5.77" style="outlineConnect=0;dashed=0;verticalLabelPosition=bottom;verticalAlign=top;align=center;html=1;shape=mxgraph.aws3.ec2;fillColor=#F58534;gradientColor=none;shadow=0;fontSize=10;" vertex="1" parent="1">
          <mxGeometry x="442" y="1314" width="70" height="83" as="geometry" />
        </mxCell>
        <mxCell id="TRkRwzScEhr-TnR55P3y-84" value="" style="endArrow=none;dashed=1;html=1;rounded=0;shadow=0;" edge="1" parent="1">
          <mxGeometry width="50" height="50" relative="1" as="geometry">
            <mxPoint x="552" y="1390" as="sourcePoint" />
            <mxPoint x="552" y="1180" as="targetPoint" />
          </mxGeometry>
        </mxCell>
        <mxCell id="TRkRwzScEhr-TnR55P3y-86" value="Web" style="text;html=1;align=center;verticalAlign=middle;resizable=0;points=[];autosize=1;strokeColor=none;fillColor=none;shadow=0;" vertex="1" parent="1">
          <mxGeometry x="317" y="1158" width="50" height="30" as="geometry" />
        </mxCell>
        <mxCell id="TRkRwzScEhr-TnR55P3y-87" value="Application" style="text;html=1;align=center;verticalAlign=middle;resizable=0;points=[];autosize=1;strokeColor=none;fillColor=none;shadow=0;" vertex="1" parent="1">
          <mxGeometry x="437" y="1158" width="80" height="30" as="geometry" />
        </mxCell>
        <mxCell id="TRkRwzScEhr-TnR55P3y-88" value="Search" style="text;html=1;align=center;verticalAlign=middle;resizable=0;points=[];autosize=1;strokeColor=none;fillColor=none;shadow=0;" vertex="1" parent="1">
          <mxGeometry x="587" y="1158" width="60" height="30" as="geometry" />
        </mxCell>
        <mxCell id="TRkRwzScEhr-TnR55P3y-90" value="BNM-Search-Instance-2&lt;br&gt;10.25.5.73" style="outlineConnect=0;dashed=0;verticalLabelPosition=bottom;verticalAlign=top;align=center;html=1;shape=mxgraph.aws3.ec2;fillColor=#fa6800;shadow=0;fontSize=10;fontColor=#000000;strokeColor=#C73500;" vertex="1" parent="1">
          <mxGeometry x="582" y="1314" width="70" height="83" as="geometry" />
        </mxCell>
        <mxCell id="TRkRwzScEhr-TnR55P3y-91" value="Monitor few hours" style="text;html=1;align=center;verticalAlign=middle;resizable=0;points=[];autosize=1;strokeColor=none;fillColor=none;fontSize=16;" vertex="1" parent="1">
          <mxGeometry x="475" y="1100" width="150" height="30" as="geometry" />
        </mxCell>
        <mxCell id="TRkRwzScEhr-TnR55P3y-93" value="" style="endArrow=classic;html=1;rounded=0;" edge="1" parent="1">
          <mxGeometry width="50" height="50" relative="1" as="geometry">
            <mxPoint x="595" y="1241" as="sourcePoint" />
            <mxPoint x="705" y="1241" as="targetPoint" />
          </mxGeometry>
        </mxCell>
        <mxCell id="TRkRwzScEhr-TnR55P3y-85" value="BNM-Search-Instance-1&lt;br&gt;10.25.4.76" style="outlineConnect=0;dashed=0;verticalLabelPosition=bottom;verticalAlign=top;align=center;html=1;shape=mxgraph.aws3.ec2;fillColor=#eeeeee;shadow=0;fontSize=10;strokeColor=#36393d;" vertex="1" parent="1">
          <mxGeometry x="582" y="1200" width="70" height="83" as="geometry" />
        </mxCell>
        <mxCell id="TRkRwzScEhr-TnR55P3y-94" value="Shutdown instead of &lt;br&gt;terminal straight away" style="text;html=1;align=center;verticalAlign=middle;resizable=0;points=[];autosize=1;strokeColor=none;fillColor=none;" vertex="1" parent="1">
          <mxGeometry x="705" y="1221.5" width="140" height="40" as="geometry" />
        </mxCell>
        <mxCell id="TRkRwzScEhr-TnR55P3y-98" value="" style="shape=mxgraph.sysml.x;" vertex="1" parent="1">
          <mxGeometry x="587" y="1211.5" width="60" height="60" as="geometry" />
        </mxCell>
      </root>
    </mxGraphModel>
  </diagram>
</mxfile>
